:SAMPLES-PER-SECOND 30
:FRAME-RANGE 1-663
:FULLY-SPECIFIED
:DEGREES
560
root  -23.505 38.184 -130.685 -175.931 22.9862 -178.168
RightUpLeg  -3.48461 8.32138 -8.74414
RightLeg  22.0345 13.572 5.76508
RightFoot  -20.6603 0.0243477 2.01529
RightToes  -3.4386e-010 1.2921e-014 -6.02303e-014
Spine  -6.68375 -3.43511 4.23947
Spine1  9.71386 -4.7479 2.68243
HEad  35.4388 -13.8092 0.831604
LeftShoulder1  1.36774 -1.60575 -21.7492
LeftArm  -5.00872 12.0371 -50.4367
LeftForeArm  29.6547 2.73461 -12.0023
LeftHand  -0.0234085 5.40181 5.12724
RightShoulder  1.19993 0.407065 26.2182
RightArm  -23.9267 -0.336113 47.4468
RightForeArm  58.539 -5.25551 4.60048
RightHand  0.0834029 -6.05214 -17.122
LeftUpLeg  -22.2403 -9.09399 19.1602
LeftLeg  16.4652 2.13299 1.09328
LeftFoot  6.13528 2.04722 -13.5122
LeftToes  -7.12384e-010 -7.51861e-011 -8.34901e-011
561
root  -24.1737 37.9499 -131.678 -175.282 25.5244 -177.479
RightUpLeg  -3.98807 11.0005 -9.93485
RightLeg  23.0886 13.8621 6.19084
RightFoot  -21.1792 0.189914 3.87349
RightToes  -3.4386e-010 1.2921e-014 -6.02303e-014
Spine  -6.11321 -3.49464 3.54943
Spine1  9.29636 -4.80924 2.96066
HEad  35.6901 -13.8649 1.34617
LeftShoulder1  1.36532 -1.64312 -21.4734
LeftArm  -4.06522 11.9543 -50.642
LeftForeArm  29.4312 1.51792 -12.3209
LeftHand  -0.031562 5.19296 4.98512
RightShoulder  1.18333 0.306277 26.6747
RightArm  -23.7766 -0.135975 46.7319
RightForeArm  59.1719 -5.63973 4.59278
RightHand  0.132763 -6.38884 -17.1488
LeftUpLeg  -22.0971 -5.49232 18.0949
LeftLeg  20.1017 0.872268 0.681093
LeftFoot  0.868732 1.65789 -15.4725
LeftToes  -7.12384e-010 -7.51861e-011 -8.34901e-011
562
root  -24.8498 37.8346 -132.611 -174.622 27.7536 -177.249
RightUpLeg  -5.03441 13.3846 -11.7483
RightLeg  24.2429 14.5041 6.83015
RightFoot  -20.8124 0.342809 5.83834
RightToes  -3.4386e-010 1.2921e-014 -6.02303e-014
Spine  -5.81717 -3.7563 2.02012
Spine1  9.13735 -5.09337 3.2233
HEad  35.8128 -13.5337 1.86457
LeftShoulder1  1.39103 -1.74998 -21.3946
LeftArm  -3.10148 11.1762 -50.7671
LeftForeArm  29.3589 1.00199 -12.6393
LeftHand  -0.0347995 5.11598 5.20575
RightShoulder  1.12849 0.0947045 27.1041
RightArm  -24.2146 0.204318 46.2233
RightForeArm  60.3058 -5.78507 4.27387
RightHand  0.00139952 -5.48384 -17.5604
LeftUpLeg  -22.1898 -3.13097 16.5479
LeftLeg  22.9853 0.474025 0.553737
LeftFoot  -3.15131 1.04949 -14.3353
LeftToes  -7.12384e-010 -7.51861e-011 -8.34901e-011
563
root  -25.519 37.8581 -133.411 -174.192 29.67 -177.597
RightUpLeg  -6.83549 16.1838 -13.9743
RightLeg  26.1163 14.4249 7.37193
RightFoot  -19.2683 0.472858 8.69917
RightToes  -3.4386e-010 1.2921e-014 -6.02303e-014
Spine  -5.31221 -4.05947 -0.149606
Spine1  8.96171 -5.34182 3.07377
HEad  36.6836 -13.5996 2.1266
LeftShoulder1  1.44273 -1.96461 -21.247
LeftArm  -2.09605 9.58422 -50.9517
LeftForeArm  29.5083 1.14024 -12.9472
LeftHand  -0.033925 5.14051 5.30493
RightShoulder  1.09729 -0.0252053 27.3683
RightArm  -24.8214 0.228654 46.0636
RightForeArm  59.7427 -5.75077 3.95284
RightHand  0.119544 -6.22893 -18.342
LeftUpLeg  -22.5063 -1.57753 14.5182
LeftLeg  25.0608 0.698182 0.696541
LeftFoot  -5.12357 0.733305 -12.8944
LeftToes  -7.12384e-010 -7.51861e-011 -8.34901e-011
564
root  -26.1743 37.9725 -134.145 -173.668 31.4839 -177.875
RightUpLeg  -9.856 18.2425 -16.098
RightLeg  29.6689 14.0506 8.30066
RightFoot  -16.6557 0.365309 10.287
RightToes  -3.4386e-010 1.2921e-014 -6.02303e-014
Spine  -4.95156 -4.18199 -1.67014
Spine1  8.8391 -5.33973 2.69592
HEad  37.2775 -13.6005 2.29232
LeftShoulder1  1.49978 -2.24747 -20.8564
LeftArm  -2.41488 7.79488 -51.2696
LeftForeArm  30.1187 1.42095 -12.7871
LeftHand  -0.030947 5.20897 4.97836
RightShoulder  1.06988 -0.123594 27.5405
RightArm  -26.0708 -0.174836 46.4803
RightForeArm  59.9547 -5.57365 3.30326
RightHand  0.153675 -6.46017 -18.1412
LeftUpLeg  -22.5446 0.236804 12.5063
LeftLeg  26.0087 0.800359 0.770328
LeftFoot  -6.22125 0.559907 -11.6599
LeftToes  -7.12384e-010 -7.51861e-011 -8.34901e-011
565
root  -26.7902 38.1905 -134.82 -173.226 33.1151 -177.828
RightUpLeg  -13.0333 18.9335 -17.2006
RightLeg  33.832 12.0418 8.33469
RightFoot  -12.6816 0.027563 9.71269
RightToes  -3.4386e-010 1.2921e-014 -6.02303e-014
Spine  -4.56505 -4.19869 -2.38133
Spine1  8.75396 -5.19087 2.07214
HEad  38.1111 -13.5018 2.09851
LeftShoulder1  1.55793 -2.52171 -20.5657
LeftArm  -2.48224 5.97778 -51.2055
LeftForeArm  30.1061 1.40978 -12.6863
LeftHand  -0.0414547 4.89662 4.54425
RightShoulder  1.08384 -0.0714653 27.4298
RightArm  -26.9364 -0.773161 47.1403
RightForeArm  60.3377 -5.47419 2.87642
RightHand  0.146604 -6.40847 -18.2343
LeftUpLeg  -21.8294 1.30037 10.9097
LeftLeg  25.5833 1.48005 1.11967
LeftFoot  -6.62562 0.465572 -10.3238
LeftToes  -7.12384e-010 -7.51861e-011 -8.34901e-011
566
root  -27.376 38.4641 -135.5 -172.784 33.9702 -177.489
RightUpLeg  -15.219 19.6463 -16.8047
RightLeg  37.1627 7.53616 5.8428
RightFoot  -9.0103 -0.201503 6.88279
RightToes  -3.4386e-010 1.2921e-014 -6.02303e-014
Spine  -4.4164 -4.33229 -2.4724
Spine1  8.86103 -5.27278 1.9207
HEad  38.6305 -13.0208 1.30664
LeftShoulder1  1.57757 -2.61184 -20.4855
LeftArm  -2.12795 4.09545 -50.8601
LeftForeArm  29.4405 1.11565 -12.727
LeftHand  -0.0345881 5.10883 4.84849
RightShoulder  0.953035 -0.459534 27.3664
RightArm  -27.1756 -0.909798 47.6825
RightForeArm  61.9996 -5.46681 2.71486
RightHand  0.0622829 -5.87022 -18.1438
LeftUpLeg  -20.7775 1.09545 9.70137
LeftLeg  24.292 2.66684 1.66071
LeftFoot  -6.55647 0.425843 -9.23925
LeftToes  -7.12384e-010 -7.51861e-011 -8.34901e-011
567
root  -27.8548 38.6629 -136.092 -172.544 34.1606 -177.32
RightUpLeg  -16.4524 19.5919 -15.6309
RightLeg  39.6908 2.83667 2.25155
RightFoot  -8.0413 -0.185834 4.55052
RightToes  -3.4386e-010 1.2921e-014 -6.02303e-014
Spine  -4.15663 -4.47119 -2.9279
Spine1  8.8047 -5.40669 1.91931
HEad  39.0743 -12.8291 0.760059
LeftShoulder1  1.58049 -2.65887 -20.313
LeftArm  -0.932638 1.52083 -50.552
LeftForeArm  28.2166 1.84069 -13.0653
LeftHand  -0.0444374 4.90431 5.56274
RightShoulder  1.04256 -0.175487 27.2068
RightArm  -27.1108 -2.29076 47.8247
RightForeArm  62.8372 -5.45759 2.83489
RightHand  0.0865686 -6.05463 -17.5266
LeftUpLeg  -19.9633 0.372364 8.60968
LeftLeg  23.2466 3.7017 2.08621
LeftFoot  -6.51288 0.386808 -8.24017
LeftToes  -7.12384e-010 -7.51861e-011 -8.34901e-011
568
root  -28.2691 38.8469 -136.6 -172.122 33.9149 -177.054
RightUpLeg  -16.8908 18.7288 -13.8381
RightLeg  40.4678 -0.272811 -0.526232
RightFoot  -9.60212 -0.126115 4.01062
RightToes  -3.4386e-010 1.2921e-014 -6.02303e-014
Spine  -4.02368 -4.57543 -3.38802
Spine1  8.70529 -5.55565 2.17573
HEad  39.5216 -12.9271 0.631371
LeftShoulder1  1.56392 -2.65153 -20.0496
LeftArm  -0.733302 -0.25669 -50.4402
LeftForeArm  28.1616 1.32556 -13.0294
LeftHand  -0.0475931 4.83734 5.63076
RightShoulder  1.00948 -0.294492 27.4236
RightArm  -26.9945 -3.16369 47.5441
RightForeArm  63.6089 -5.44497 2.92302
RightHand  0.0883651 -6.07195 -17.4149
LeftUpLeg  -19.3815 0.062708 7.74949
LeftLeg  22.0133 4.00061 2.12139
LeftFoot  -6.24552 0.35263 -7.07822
LeftToes  -7.12384e-010 -7.51861e-011 -8.34901e-011
569
root  -28.6589 39.0348 -137.071 -171.547 33.7089 -176.754
RightUpLeg  -17.0564 17.096 -11.8739
RightLeg  39.4822 -0.899 -1.06564
RightFoot  -10.4812 -0.0984493 3.63717
RightToes  -3.4386e-010 1.2921e-014 -6.02303e-014
Spine  -4.06635 -4.58528 -3.23346
Spine1  8.63614 -5.4751 1.96519
HEad  39.619 -13.1057 0.870053
LeftShoulder1  1.54912 -2.66493 -19.7203
LeftArm  -0.442233 -1.64197 -50.3307
LeftForeArm  27.7074 0.279304 -12.984
LeftHand  -0.0540771 4.69127 5.64576
RightShoulder  0.86176 -0.765397 27.7899
RightArm  -27.4263 -3.64554 47.5468
RightForeArm  64.3599 -5.38137 2.70444
RightHand  0.13477 -6.37824 -17.5106
LeftUpLeg  -18.7875 -0.0668784 6.95798
LeftLeg  20.4301 4.17829 2.13568
LeftFoot  -5.81473 0.330278 -6.11761
LeftToes  -7.12384e-010 -7.51861e-011 -8.34901e-011
570
root  -28.9797 39.1349 -137.444 -171.107 33.6689 -176.571
RightUpLeg  -17.3054 15.5021 -9.6774
RightLeg  37.7246 -0.381811 -0.578732
RightFoot  -11.5664 -0.0703462 4.14523
RightToes  -3.4386e-010 1.2921e-014 -6.02303e-014
Spine  -3.87915 -4.566 -3.55947
Spine1  8.51191 -5.3911 1.84371
HEad  39.5015 -13.0169 1.05024
LeftShoulder1  1.52343 -2.58659 -19.6221
LeftArm  0.164515 -2.97929 -50.0133
LeftForeArm  26.725 -0.676996 -13.0163
LeftHand  -0.0638572 4.50807 5.9038
RightShoulder  0.810783 -0.938181 28.1038
RightArm  -26.7422 -4.04598 47.2426
RightForeArm  63.5171 -5.47751 3.09789
RightHand  0.203744 -6.86392 -17.2578
LeftUpLeg  -18.5565 0.0126986 6.19663
LeftLeg  19.6454 4.16284 2.28001
LeftFoot  -5.64568 0.30555 -5.45981
LeftToes  -7.12384e-010 -7.51861e-011 -8.34901e-011
571
root  -29.2885 39.2309 -137.802 -170.586 33.9826 -176.348
RightUpLeg  -17.3515 14.1607 -7.59604
RightLeg  34.6513 1.15212 0.609023
RightFoot  -12.6057 -0.0352182 4.55746
RightToes  -3.4386e-010 1.2921e-014 -6.02303e-014
Spine  -3.79935 -4.45745 -3.49886
Spine1  8.33407 -5.16169 1.61959
HEad  39.3705 -12.6889 1.15806
LeftShoulder1  1.50677 -2.54571 -19.5101
LeftArm  0.523052 -3.7943 -49.6959
LeftForeArm  26.2393 -1.80949 -12.9294
LeftHand  -0.067497 4.42338 5.86652
RightShoulder  1.03273 -0.212099 27.2835
RightArm  -27.8159 -4.99702 48.1302
RightForeArm  63.8128 -5.3923 2.65237
RightHand  0.204341 -6.89216 -17.0112
LeftUpLeg  -18.2368 0.253216 5.49227
LeftLeg  18.703 4.26092 2.43406
LeftFoot  -5.52809 0.274001 -4.74231
LeftToes  -7.12384e-010 -7.51861e-011 -8.34901e-011
572
root  -29.5588 39.3431 -138.113 -169.913 34.4923 -175.722
RightUpLeg  -17.0927 13.9609 -5.26365
RightLeg  30.4691 2.34377 1.25747
RightFoot  -12.6975 -0.0211712 5.49028
RightToes  -3.4386e-010 1.2921e-014 -6.02303e-014
Spine  -3.67912 -4.30873 -3.17875
Spine1  8.24849 -4.964 1.64929
HEad  39.0582 -12.0877 1.18641
LeftShoulder1  1.47431 -2.42148 -19.5006
LeftArm  0.922151 -4.64142 -49.3992
LeftForeArm  26.0645 -2.33853 -12.9101
LeftHand  -0.0946859 3.94782 6.3294
RightShoulder  1.0515 -0.158536 27.3177
RightArm  -27.6968 -4.57896 48.2033
RightForeArm  64.1309 -5.38447 2.67376
RightHand  0.184795 -6.75018 -17.0901
LeftUpLeg  -17.8838 0.612407 5.25831
LeftLeg  17.8591 4.59227 2.59895
LeftFoot  -5.31278 0.255143 -4.23924
LeftToes  -7.12384e-010 -7.51861e-011 -8.34901e-011
